@startuml RegenSkillLogic
state "RegenSkillLogic State" as EternalJourney_Skills_Regen_State_RegenSkillLogic_State {
  state "InActive" as EternalJourney_Skills_Regen_State_RegenSkillLogic_State_InActive
  state "Active" as EternalJourney_Skills_Regen_State_RegenSkillLogic_State_Active
}

EternalJourney_Skills_Regen_State_RegenSkillLogic_State_Active --> EternalJourney_Skills_Regen_State_RegenSkillLogic_State_Active : Apply
EternalJourney_Skills_Regen_State_RegenSkillLogic_State_Active --> EternalJourney_Skills_Regen_State_RegenSkillLogic_State_Active : Remove
EternalJourney_Skills_Regen_State_RegenSkillLogic_State_Active --> EternalJourney_Skills_Regen_State_RegenSkillLogic_State_Active : Tick
EternalJourney_Skills_Regen_State_RegenSkillLogic_State_Active --> EternalJourney_Skills_Regen_State_RegenSkillLogic_State_InActive : Remove
EternalJourney_Skills_Regen_State_RegenSkillLogic_State_InActive --> EternalJourney_Skills_Regen_State_RegenSkillLogic_State_Active : Apply

EternalJourney_Skills_Regen_State_RegenSkillLogic_State_Active : OnApply → Activated
EternalJourney_Skills_Regen_State_RegenSkillLogic_State_Active : OnEnter → Activated
EternalJourney_Skills_Regen_State_RegenSkillLogic_State_Active : OnExit → Deactivated
EternalJourney_Skills_Regen_State_RegenSkillLogic_State_Active : OnTick → TikHeal

[*] --> EternalJourney_Skills_Regen_State_RegenSkillLogic_State_InActive
@enduml