@startuml ExplosionBulletLogic
state "ExplosionBulletLogic State" as EternalJourney_Bullet_Abstract_State_ExplosionBulletLogic_State {
  state "EmitWait" as EternalJourney_Bullet_Abstract_State_ExplosionBulletLogic_State_EmitWait
  state "InFlight" as EternalJourney_Bullet_Abstract_State_ExplosionBulletLogic_State_InFlight
  state "Blast" as EternalJourney_Bullet_Abstract_State_ExplosionBulletLogic_State_Blast
}

EternalJourney_Bullet_Abstract_State_ExplosionBulletLogic_State_Blast --> EternalJourney_Bullet_Abstract_State_ExplosionBulletLogic_State_Blast : EnemyHit
EternalJourney_Bullet_Abstract_State_ExplosionBulletLogic_State_Blast --> EternalJourney_Bullet_Abstract_State_ExplosionBulletLogic_State_EmitWait : BlastTimerTimeout
EternalJourney_Bullet_Abstract_State_ExplosionBulletLogic_State_EmitWait --> EternalJourney_Bullet_Abstract_State_ExplosionBulletLogic_State_InFlight : Emit
EternalJourney_Bullet_Abstract_State_ExplosionBulletLogic_State_InFlight --> EternalJourney_Bullet_Abstract_State_ExplosionBulletLogic_State_EmitWait : Miss

EternalJourney_Bullet_Abstract_State_ExplosionBulletLogic_State_Blast : OnBlastTimerTimeout → RemoveSelf
EternalJourney_Bullet_Abstract_State_ExplosionBulletLogic_State_EmitWait : OnEmit → Emitted
EternalJourney_Bullet_Abstract_State_ExplosionBulletLogic_State_InFlight : CheckUnderZeroDurability() → Collapse
EternalJourney_Bullet_Abstract_State_ExplosionBulletLogic_State_InFlight : OnEnemyHit → CurrentDurChange
EternalJourney_Bullet_Abstract_State_ExplosionBulletLogic_State_InFlight : OnMiss → RemoveSelf
EternalJourney_Bullet_Abstract_State_ExplosionBulletLogic_State_InFlight : OnPhysicsProcess → Move

[*] --> EternalJourney_Bullet_Abstract_State_ExplosionBulletLogic_State_EmitWait
@enduml